<?xml version="1.0" encoding="utf-8"?>
<!-- Generator: Adobe Illustrator 19.0.0, SVG Export Plug-In . SVG Version: 6.00 Build 0)  -->
<svg version="1.1" id="Layer_1" xmlns="http://www.w3.org/2000/svg" xmlns:xlink="http://www.w3.org/1999/xlink" x="0px" y="0px"
	 viewBox="0 0 24 18" style="enable-background:new 0 0 24 18;" xml:space="preserve">
<style type="text/css">
	.st0{fill-rule:evenodd;clip-rule:evenodd;fill:#303031;}
</style>
<g id="XMLID_2_">
	<g id="XMLID_56_">
		<path id="XMLID_57_" class="st0" d="M22,9.8V6h-0.3c-0.8-2.3-3-4-5.7-4c-0.3,0-0.6,0-1,0.1C14.1,0.8,12.7,0,11,0C8.2,0,6,2.2,6,5
			c0,0.3,0,0.7,0.1,1C6.1,6,6,6,6,6c-3.3,0-6,2.7-6,6c0,3,2.2,5.4,5,5.9V18h16v-0.3c1.7-0.6,3-2.3,3-4.2C24,11.9,23.2,10.6,22,9.8z
			 M20,15.9L20,15.9L5,16v-0.1c-1.7-0.4-3-2-3-3.9c0-1.9,1.3-3.4,3-3.9V8h1.2c0.3-0.9,1.1-1.6,2.1-1.9C8.1,5.8,8,5.4,8,5
			c0-1.7,1.3-3,3-3c1.5,0,2.8,1.1,3,2.6C14.6,4.2,15.3,4,16,4c2.2,0,4,1.8,4,4v3.1c1.1,0.2,2,1.2,2,2.4S21.1,15.7,20,15.9z"/>
	</g>
</g>
</svg>
