<?xml version="1.0" encoding="utf-8"?>
<!-- Generator: Adobe Illustrator 19.0.0, SVG Export Plug-In . SVG Version: 6.00 Build 0)  -->
<svg version="1.1" id="Layer_1" xmlns="http://www.w3.org/2000/svg" xmlns:xlink="http://www.w3.org/1999/xlink" x="0px" y="0px"
	 viewBox="0 0 22 22" style="enable-background:new 0 0 22 22;" xml:space="preserve">
<style type="text/css">
	.st0{fill-rule:evenodd;clip-rule:evenodd;fill:#303031;}
</style>
<g>
	<g id="XMLID_80_">
		<path id="XMLID_81_" class="st0" d="M17.4,6.1l1.4-1.4c0.4-0.4,0.4-1,0-1.4c-0.4-0.4-1-0.4-1.4,0l-1.4,1.4c-0.4,0.4-0.4,1,0,1.4
			C16.3,6.4,17,6.4,17.4,6.1z M4.6,15.9l-1.4,1.4c-0.4,0.4-0.4,1,0,1.4c0.4,0.4,1,0.4,1.4,0L6,17.4c0.4-0.4,0.4-1,0-1.4
			C5.7,15.6,5,15.6,4.6,15.9z M4,11c0-0.6-0.4-1-1-1H1c-0.6,0-1,0.4-1,1c0,0.6,0.4,1,1,1h2C3.6,12,4,11.6,4,11z M11,4
			c0.6,0,1-0.4,1-1V1c0-0.6-0.4-1-1-1s-1,0.4-1,1v2C10,3.6,10.4,4,11,4z M21,10h-2c-0.6,0-1,0.4-1,1c0,0.6,0.4,1,1,1h2
			c0.6,0,1-0.4,1-1C22,10.4,21.6,10,21,10z M11,18c-0.6,0-1,0.4-1,1v2c0,0.6,0.4,1,1,1s1-0.4,1-1v-2C12,18.4,11.6,18,11,18z
			 M17.4,15.9c-0.4-0.4-1-0.4-1.4,0c-0.4,0.4-0.4,1,0,1.4l1.4,1.4c0.4,0.4,1,0.4,1.4,0c0.4-0.4,0.4-1,0-1.4L17.4,15.9z M11,6
			c-2.8,0-5,2.2-5,5s2.2,5,5,5s5-2.2,5-5S13.8,6,11,6z M11,14c-1.7,0-3-1.3-3-3c0-1.7,1.3-3,3-3c1.7,0,3,1.3,3,3
			C14,12.7,12.7,14,11,14z M4.6,6.1c0.4,0.4,1,0.4,1.4,0c0.4-0.4,0.4-1,0-1.4L4.6,3.2c-0.4-0.4-1-0.4-1.4,0c-0.4,0.4-0.4,1,0,1.4
			L4.6,6.1z"/>
	</g>
</g>
</svg>
