<?xml version="1.0" encoding="utf-8"?>
<!-- Generator: Adobe Illustrator 19.0.0, SVG Export Plug-In . SVG Version: 6.00 Build 0)  -->
<svg version="1.1" id="Layer_1" xmlns="http://www.w3.org/2000/svg" xmlns:xlink="http://www.w3.org/1999/xlink" x="0px" y="0px"
	 viewBox="0 0 16 19" style="enable-background:new 0 0 16 19;" xml:space="preserve">
<style type="text/css">
	.st0{fill-rule:evenodd;clip-rule:evenodd;fill:#303031;}
</style>
<g id="XMLID_2_">
	<g id="XMLID_61_">
		<path id="XMLID_62_" class="st0" d="M8,4C5.8,4,4,5.8,4,8c0,2.2,1.8,4,4,4c2.2,0,4-1.8,4-4C12,5.8,10.2,4,8,4z M8,10
			c-1.1,0-2-0.9-2-2c0-1.1,0.9-2,2-2c1.1,0,2,0.9,2,2C10,9.1,9.1,10,8,10z M8,0C3.6,0,0,3.6,0,8c0,2.2,0.8,4.2,2.3,5.7c0,0,0,0,0,0
			l4.9,5C7.4,18.9,7.7,19,8,19C8,19,8,19,8,19c0.2,0,0.5-0.1,0.6-0.3l4.9-5c0,0,0.1-0.1,0.1-0.1C15.2,12.1,16,10.1,16,8
			C16,3.6,12.4,0,8,0z M12.3,12.6C12.2,12.6,12.2,12.6,12.3,12.6L8,17l-4.2-4.4c0,0,0,0,0,0C2.6,11.5,2,9.9,2,8.2C2,4.8,4.7,2,8,2
			c3.3,0,6,2.8,6,6.2C14,9.8,13.4,11.4,12.3,12.6z"/>
	</g>
</g>
</svg>
