<?xml version="1.0" encoding="utf-8"?>
<!-- Generator: Adobe Illustrator 19.0.0, SVG Export Plug-In . SVG Version: 6.00 Build 0)  -->
<svg version="1.1" id="Layer_1" xmlns="http://www.w3.org/2000/svg" xmlns:xlink="http://www.w3.org/1999/xlink" x="0px" y="0px"
	 viewBox="0 0 15.3 15.3" style="enable-background:new 0 0 15.3 15.3;" xml:space="preserve">
<style type="text/css">
	.st0{fill-rule:evenodd;clip-rule:evenodd;fill:#242425;}
</style>
<g id="XMLID_2_">
	<g id="XMLID_48_">
		<path id="XMLID_49_" class="st0" d="M10.5,7.7l4.2-4.2c0.8-0.8,0.8-2,0-2.8c-0.8-0.8-2-0.8-2.8,0L7.7,4.8L3.4,0.6
			c-0.8-0.8-2-0.8-2.8,0c-0.8,0.8-0.8,2,0,2.8l4.2,4.2l-4.2,4.2c-0.8,0.8-0.8,2,0,2.8c0.8,0.8,2,0.8,2.8,0l4.2-4.2l4.2,4.2
			c0.8,0.8,2,0.8,2.8,0c0.8-0.8,0.8-2,0-2.8L10.5,7.7z"/>
	</g>
</g>
</svg>
