<?xml version="1.0" encoding="utf-8"?>
<!-- Generator: Adobe Illustrator 19.0.0, SVG Export Plug-In . SVG Version: 6.00 Build 0)  -->
<svg version="1.1" id="Layer_1" xmlns="http://www.w3.org/2000/svg" xmlns:xlink="http://www.w3.org/1999/xlink" x="0px" y="0px"
	 viewBox="0 0 16 14" style="enable-background:new 0 0 16 14;" xml:space="preserve">
<style type="text/css">
	.st0{fill:#eef1f3;}
</style>
<path id="XMLID_2_" class="st0" d="M16,4.5c0,1.3-0.7,2.3-0.7,2.3c-0.4,0.6-1.1,1.4-1.6,1.9l-4.8,4.9c-0.5,0.5-1.3,0.5-1.7,0
	L2.3,8.8C1.8,8.3,1.1,7.4,0.7,6.9c0,0-0.7-1-0.7-2.3C0,2,2,0,4.5,0c1.3,0,2.4,0.5,3.2,1.4c0.1,0.1,0.1,0.1,0.1,0.1
	c0.1,0.1,0.2,0.1,0.3,0c0,0,0,0,0.1-0.1c0.8-0.9,2-1.4,3.2-1.4C14,0,16,2,16,4.5z"/>
</svg>
