<?xml version="1.0" encoding="utf-8"?>
<!-- Generator: Adobe Illustrator 19.0.0, SVG Export Plug-In . SVG Version: 6.00 Build 0)  -->
<svg version="1.1" id="Layer_1" xmlns="http://www.w3.org/2000/svg" xmlns:xlink="http://www.w3.org/1999/xlink" x="0px" y="0px"
	 viewBox="0 0 20 20" style="enable-background:new 0 0 20 20;" xml:space="preserve">
<style type="text/css">
	.st0{fill-rule:evenodd;clip-rule:evenodd;fill:#303031;}
</style>
<g>
	<g id="XMLID_50_">
		<path id="XMLID_51_" class="st0" d="M9,5h2c0.6,0,1-0.4,1-1c0-0.6-0.4-1-1-1H9C8.4,3,8,3.4,8,4C8,4.6,8.4,5,9,5z M17,3
			c-0.6,0-1,0.4-1,1c0,0.6,0.4,1,1,1s1,0.4,1,1v2H2V6c0-0.6,0.4-1,1-1s1-0.4,1-1c0-0.6-0.4-1-1-1C1.3,3,0,4.3,0,6v11
			c0,1.7,1.3,3,3,3h14c1.7,0,3-1.3,3-3V6C20,4.3,18.7,3,17,3z M18,17c0,0.6-0.4,1-1,1H3c-0.6,0-1-0.4-1-1v-7h16V17z M6,6
			c0.6,0,1-0.4,1-1V0H5v5C5,5.6,5.4,6,6,6z M14,6c0.6,0,1-0.4,1-1V0h-2v5C13,5.6,13.4,6,14,6z"/>
	</g>
</g>
</svg>
