<?xml version="1.0" encoding="utf-8"?>
<!-- Generator: Adobe Illustrator 19.0.0, SVG Export Plug-In . SVG Version: 6.00 Build 0)  -->
<svg version="1.1" id="Layer_1" xmlns="http://www.w3.org/2000/svg" xmlns:xlink="http://www.w3.org/1999/xlink" x="0px" y="0px"
	 viewBox="-86 92 20 25" style="enable-background:new -86 92 20 25;" xml:space="preserve">
<style type="text/css">
	.st0{fill:#303031;}
</style>
<g id="XMLID_2_">
	<g id="XMLID_37_">
		<path id="XMLID_38_" class="st0" d="M-77.4,111.5c0.6,0.6,1.6,0.6,2.3,0.1l8.6-8.2c0.6-0.6,0.6-1.6,0.1-2.2l-8.2-8.7
			c-0.6-0.6-1.6-0.6-2.3-0.1l-8.7,8.2c-0.6,0.6-0.6,1.6-0.1,2.2L-77.4,111.5z M-66.4,106.3c-0.4-0.4-1.1-0.4-1.5,0l-8.1,8.3
			l-8.2-8.3c-0.4-0.4-1.1-0.4-1.6,0c-0.4,0.4-0.4,1.2,0,1.6l8.6,8.6c0.3,0.3,0.7,0.5,1.1,0.5s0.9-0.2,1.1-0.5l8.6-8.6
			C-66,107.5-66,106.7-66.4,106.3z"/>
	</g>
</g>
</svg>
