<?xml version="1.0" encoding="utf-8"?>
<!-- Generator: Adobe Illustrator 19.0.0, SVG Export Plug-In . SVG Version: 6.00 Build 0)  -->
<svg version="1.1" xmlns="http://www.w3.org/2000/svg" xmlns:xlink="http://www.w3.org/1999/xlink" x="0px" y="0px"
	 viewBox="0 0 20 20" style="enable-background:new 0 0 20 20;" xml:space="preserve">
<style type="text/css">
	.st0{display:none;}
	.st1{display:inline;}
	.st2{fill-rule:evenodd;clip-rule:evenodd;fill:#4a4a4a;}
	.st3{display:none;fill-rule:evenodd;clip-rule:evenodd;fill:#4a4a4a;}
</style>
<g id="Layer_1">
	<g id="XMLID_2_" class="st0">
		<g id="XMLID_25_" class="st1">
			<path id="XMLID_26_" class="st2" d="M10,0C8.9,0,8,0.9,8,2v16c0,1.1,0.9,2,2,2c1.1,0,2-0.9,2-2V2C12,0.9,11.1,0,10,0z"/>
		</g>
	</g>
	<path id="XMLID_3_" class="st3" d="M2,7.7h16c1.1,0,2,1,2,2.2S19.1,12,18,12H2c-1.1,0-2-1-2-2.2S0.9,7.7,2,7.7z"/>
</g>
<g id="Layer_2">
	<path id="XMLID_7_" class="st2" d="M2,8h16c1.1,0,2,0.9,2,2s-0.9,2-2,2H2c-1.1,0-2-0.9-2-2S0.9,8,2,8z"/>
</g>
</svg>
