<?xml version="1.0" encoding="utf-8"?>
<!-- Generator: Adobe Illustrator 19.0.0, SVG Export Plug-In . SVG Version: 6.00 Build 0)  -->
<svg version="1.1" id="Layer_1" xmlns="http://www.w3.org/2000/svg" xmlns:xlink="http://www.w3.org/1999/xlink" x="0px" y="0px"
	 viewBox="0 0 20 25" style="enable-background:new 0 0 20 25;" xml:space="preserve">
<style type="text/css">
	.st0{fill:#FFFFFF;}
</style>
<g id="XMLID_2_">
	<g id="XMLID_35_">
		<path id="XMLID_37_" class="st0" d="M8.7,19.5c0.6,0.6,1.6,0.6,2.3,0.1l8.6-8.2c0.6-0.6,0.6-1.6,0.1-2.2l-8.2-8.7
			c-0.6-0.6-1.6-0.6-2.3-0.1L0.5,8.6c-0.6,0.6-0.6,1.6-0.1,2.2L8.7,19.5z M19.7,14.3c-0.4-0.4-1.1-0.4-1.5,0l-8.1,8.3l-8.2-8.3
			c-0.4-0.4-1.1-0.4-1.6,0c-0.4,0.4-0.4,1.2,0,1.6l8.6,8.6C9.2,24.8,9.6,25,10,25s0.9-0.2,1.1-0.5l8.6-8.6
			C20.1,15.5,20.1,14.7,19.7,14.3z"/>
	</g>
</g>
</svg>
