<?xml version="1.0" encoding="utf-8"?>
<!-- Generator: Adobe Illustrator 19.0.0, SVG Export Plug-In . SVG Version: 6.00 Build 0)  -->
<svg version="1.1" id="Layer_1" xmlns="http://www.w3.org/2000/svg" xmlns:xlink="http://www.w3.org/1999/xlink" x="0px" y="0px"
	 viewBox="0 0 28 24" style="enable-background:new 0 0 28 24;" xml:space="preserve">
<style type="text/css">
	.st0{fill:#242425;}
</style>
<g>
	<g id="XMLID_29_">
		<path id="XMLID_30_" class="st0" d="M25.4,11c0.5-2.2,0.1-4.3-1.1-6c-1.2-1.6-3.2-2.5-5.3-2.5c-1,0-2.1,0.2-3.1,0.6
			c-1.1-1-2.6-1.6-4.1-1.6C8.5,1.5,5.8,4,5.6,7.2c-2.9,0.5-5.1,3-5.1,6c0,3,2.2,5.6,5.1,6c1.1,2,3.1,3.2,5.4,3.2
			c1.6,0,3.1-0.6,4.2-1.7c0.3,0.1,0.6,0.1,0.9,0.1c1.7,0,3.2-0.8,4.1-2.1c0.5,0.1,1,0.2,1.5,0.2c2.7,0,4.8-2.2,4.8-4.8
			C26.5,13,26.1,11.9,25.4,11z M16.5,13.4c0.4,0.4,0.4,1,0,1.4c-0.2,0.2-0.5,0.3-0.7,0.3c-0.3,0-0.5-0.1-0.7-0.3l-1.4-1.4l-1.4,1.4
			c-0.2,0.2-0.5,0.3-0.7,0.3s-0.5-0.1-0.7-0.3c-0.4-0.4-0.4-1,0-1.4l1.4-1.4l-1.4-1.4c-0.4-0.4-0.4-1,0-1.4c0.4-0.4,1-0.4,1.4,0
			l1.4,1.4l1.4-1.4c0.4-0.4,1-0.4,1.4,0c0.4,0.4,0.4,1,0,1.4L15.1,12L16.5,13.4z"/>
	</g>
</g>
</svg>
