<svg id="Layer_1" data-name="Layer 1" xmlns="http://www.w3.org/2000/svg" viewBox="0 0 63.91 47"><defs><style>.cls-1{fill:#231f20;}</style></defs><title>icon</title><path class="cls-1" d="M26.67,47a2.72,2.72,0,0,1-.65-.08,2.61,2.61,0,0,1-1.94-3.16L34.74,2A2.66,2.66,0,0,1,38,.08a2.61,2.61,0,0,1,1.94,3.17L29.25,45A2.66,2.66,0,0,1,26.67,47ZM16,41.78a2.68,2.68,0,0,1-2.07-1l-13.3-16a2.57,2.57,0,0,1,0-3.41L14,6.15a2.71,2.71,0,0,1,3.76-.3A2.57,2.57,0,0,1,18,9.53L6.14,23.21,18.07,37.52a2.57,2.57,0,0,1-.38,3.67A2.69,2.69,0,0,1,16,41.78Zm32,0a2.69,2.69,0,0,1-1.73-.62,2.58,2.58,0,0,1-.3-3.68L57.86,23.79,45.93,9.49a2.57,2.57,0,0,1,.38-3.67,2.7,2.7,0,0,1,3.75.37l13.3,16A2.57,2.57,0,0,1,63.72,25a2.52,2.52,0,0,1-.4.58L50,40.86A2.69,2.69,0,0,1,48,41.78Z"/></svg>